<?xml version="1.0" standalone="no"?>
<!DOCTYPE svg PUBLIC "-//W3C//DTD SVG 20010904//EN"
 "http://www.w3.org/TR/2001/REC-SVG-20010904/DTD/svg10.dtd">
<svg version="1.0" xmlns="http://www.w3.org/2000/svg"
 width="700.000000pt" height="700.000000pt" viewBox="0 0 700.000000 700.000000"
 preserveAspectRatio="xMidYMid meet">
<metadata>
Created by potrace 1.14, written by Peter Selinger 2001-2017
</metadata>
<g transform="translate(0.000000,700.000000) scale(0.100000,-0.100000)"
fill="#000000" stroke="none">
<path d="M2888 6985 c-214 -53 -385 -208 -454 -414 -29 -86 -33 -121 -34 -323
-2 -224 -27 -321 -103 -408 -33 -37 -346 -238 -647 -415 -63 -37 -132 -78
-152 -91 -21 -13 -40 -24 -42 -24 -3 0 -45 -24 -93 -53 -48 -29 -200 -118
-338 -197 -137 -79 -290 -170 -340 -203 -303 -201 -535 -483 -624 -756 -41
-125 -55 -220 -56 -371 0 -188 10 -277 50 -425 9 -33 18 -64 19 -70 6 -27 152
-382 211 -510 7 -16 30 -66 50 -110 72 -157 78 -170 80 -175 2 -5 8 -20 98
-215 99 -217 147 -316 342 -710 252 -507 402 -784 559 -1028 50 -78 162 -195
250 -261 70 -53 266 -156 296 -156 9 0 20 -4 25 -8 36 -30 275 -61 440 -57
154 5 166 6 280 29 98 20 136 45 149 97 8 37 -11 84 -42 105 -21 14 -53 17
-171 19 -250 4 -402 37 -563 123 -218 117 -303 239 -507 737 -46 110 -89 214
-96 230 -7 17 -27 68 -45 115 -17 47 -38 99 -45 115 -82 186 -667 1728 -693
1825 -59 222 -44 428 42 573 66 113 230 272 446 433 96 72 308 230 470 351
162 121 381 281 485 356 105 75 195 140 200 144 6 5 37 26 70 48 69 45 170
120 203 149 77 69 174 221 212 332 48 138 61 233 64 484 2 163 10 188 64 222
34 21 41 21 576 22 605 1 599 2 643 -65 23 -35 25 -47 28 -196 3 -147 6 -177
21 -243 3 -14 8 -36 10 -50 8 -45 54 -170 85 -233 96 -189 170 -262 519 -502
247 -170 656 -456 1015 -710 72 -50 191 -135 266 -187 181 -128 251 -203 323
-348 53 -106 70 -180 69 -305 0 -83 -5 -125 -21 -171 -18 -55 -80 -211 -102
-259 -5 -11 -50 -119 -99 -240 -49 -121 -101 -247 -116 -280 -14 -33 -30 -70
-35 -82 -6 -13 -14 -33 -20 -45 -52 -122 -207 -472 -240 -543 -23 -49 -60
-130 -83 -180 -85 -184 -249 -501 -325 -630 -193 -325 -415 -559 -617 -647
-76 -34 -100 -39 -211 -45 -197 -11 -439 78 -636 236 -156 124 -342 324 -525
561 l-81 106 121 28 c129 30 378 108 462 145 274 123 467 252 655 441 145 145
202 216 297 372 117 192 230 479 259 658 3 19 9 39 12 44 10 16 11 298 1 356
-5 30 -12 75 -15 100 -10 68 -59 228 -100 321 -136 309 -379 570 -673 722
-249 129 -463 178 -746 171 -82 -2 -163 -6 -180 -8 -16 -2 -51 -7 -76 -10 -26
-2 -100 -17 -165 -31 -646 -145 -1096 -602 -1220 -1240 -2 -11 -6 -40 -9 -65
-3 -25 -8 -59 -11 -77 -8 -42 -8 -256 -1 -313 26 -196 99 -470 167 -625 10
-22 34 -80 55 -130 69 -166 218 -455 327 -633 21 -35 38 -65 36 -67 -2 -1 -35
-5 -73 -9 -39 -4 -81 -8 -95 -10 -24 -4 -79 -9 -260 -21 -163 -12 -182 -14
-196 -26 -17 -14 -18 -63 -1 -77 16 -14 130 -33 277 -47 179 -18 255 -22 420
-25 l75 -1 30 -47 c24 -38 144 -202 250 -341 207 -272 538 -598 745 -734 102
-67 274 -149 400 -191 110 -37 117 -38 245 -61 78 -13 319 -14 375 -1 14 3 39
8 55 12 89 17 280 95 359 146 216 140 437 366 601 614 146 221 358 638 586
1154 16 36 34 73 39 82 6 10 10 22 10 27 0 5 14 40 31 78 17 37 39 87 50 110
10 24 19 45 19 48 0 4 9 25 19 48 35 77 159 382 256 628 52 134 99 253 104
264 24 55 32 82 52 158 29 113 29 115 34 267 5 202 -29 349 -126 546 -59 120
-164 263 -262 359 -40 39 -146 122 -237 185 -91 62 -220 152 -288 199 -67 48
-173 121 -235 163 -62 43 -121 85 -133 93 -11 9 -115 80 -230 160 -115 79
-213 148 -219 153 -5 4 -102 70 -213 146 -219 149 -241 167 -290 237 -71 104
-93 196 -93 389 -1 84 -7 173 -15 213 -44 215 -196 385 -416 465 l-73 27 -610
2 c-492 1 -621 -1 -667 -12z m947 -2790 c127 -13 232 -46 344 -106 294 -158
481 -455 498 -789 7 -145 -11 -245 -78 -444 -83 -243 -219 -451 -413 -632 -85
-81 -210 -175 -288 -219 -144 -82 -376 -183 -518 -225 -41 -12 -86 -26 -100
-31 -72 -27 -69 -29 -152 109 -125 209 -235 420 -305 587 -14 33 -35 83 -48
110 -57 127 -120 337 -150 500 -13 69 -13 267 0 330 51 253 169 454 347 591
163 126 380 201 639 222 94 7 130 7 224 -3z"/>
</g>
</svg>
