<?xml version="1.0" encoding="utf-8"?>
<!-- Generator: Adobe Illustrator 24.3.0, SVG Export Plug-In . SVG Version: 6.00 Build 0)  -->
<svg version="1.1" id="Layer_1" xmlns="http://www.w3.org/2000/svg" xmlns:xlink="http://www.w3.org/1999/xlink" x="0px" y="0px"
	 viewBox="0 0 600 600" style="enable-background:new 0 0 600 600;" xml:space="preserve">
<style type="text/css">
	.st0{opacity:6.000000e-02;fill:#FFFFFF;}
	.st1{fill:none;stroke:#FFFFFF;stroke-miterlimit:10;}
</style>
<path class="st0" d="M405.7,594H194.3C90.3,594,6,509.7,6,405.7V194.3C6,90.3,90.3,6,194.3,6h211.5C509.7,6,594,90.3,594,194.3
	v211.5C594,509.7,509.7,594,405.7,594z"/>
<g>
	<g>
		<path class="st1" d="M185.8,264.3l6.1,87.3c0.8,11.9,7.9,22.4,18.7,27.7l78.7,38.4c10.7,5.2,23.4,4.3,33.3-2.3l72.6-49
			c9.9-6.7,15.5-18.1,14.6-30l-6.1-87.3c-0.8-11.9-7.9-22.4-18.7-27.7l-78.7-38.4c-10.7-5.2-23.4-4.3-33.3,2.3l-72.6,49
			C190.5,241,184.9,252.4,185.8,264.3z"/>
	</g>
	<g>
		<path class="st1" d="M381.4,203.7l-90-31c-12.3-4.2-25.8-1.6-35.6,6.9L184,242c-9.8,8.5-14.3,21.6-11.8,34.3l18.2,93.4
			c2.5,12.7,11.5,23.2,23.8,27.4l90,31c12.3,4.2,25.8,1.6,35.6-6.9l71.8-62.4c9.8-8.5,14.3-21.6,11.8-34.3L405.2,231
			C402.7,218.3,393.6,207.9,381.4,203.7z"/>
	</g>
	<g>
		<path class="st1" d="M359,425.2l69.2-76.9c9.4-10.5,12.5-25.2,8.2-38.6l-32-98.4c-4.4-13.4-15.5-23.4-29.3-26.4L274,163.5
			c-13.8-2.9-28.1,1.7-37.5,12.2l-69.2,76.9c-9.4,10.5-12.5,25.2-8.2,38.6l32,98.4c4.4,13.4,15.5,23.4,29.3,26.4l101.2,21.5
			C335.3,440.3,349.6,435.6,359,425.2z"/>
	</g>
	<g>
		<path class="st1" d="M146.9,308.7l47.5,101.9c6.5,13.9,19.8,23.2,35.1,24.6l112,9.8c15.3,1.3,30.1-5.6,38.8-18.1l64.5-92.1
			c8.8-12.5,10.2-28.8,3.7-42.7l-47.5-101.9c-6.5-13.9-19.8-23.2-35.1-24.6l-112-9.8c-15.3-1.3-30.1,5.6-38.8,18.1L150.6,266
			C141.8,278.6,140.4,294.8,146.9,308.7z"/>
	</g>
	<g>
		<path class="st1" d="M353.5,145.9l-122.1,4.3c-16.6,0.6-31.7,10-39.5,24.7l-57.4,107.9c-7.8,14.7-7.2,32.4,1.6,46.5L200.9,433
			c8.8,14.1,24.5,22.4,41.1,21.9l122.1-4.3c16.6-0.6,31.7-10,39.5-24.7L461,318c7.8-14.7,7.2-32.4-1.6-46.5l-64.8-103.6
			C385.8,153.7,370.1,145.4,353.5,145.9z"/>
	</g>
	<g>
		<path class="st1" d="M428.6,421.8l47.6-124c6.5-16.9,3.5-35.9-7.9-50l-83.6-103.2c-11.4-14.1-29.4-21-47.3-18.1l-131.2,20.8
			c-17.9,2.8-32.9,15-39.3,31.9l-47.6,124c-6.5,16.9-3.5,35.9,7.9,50l83.6,103.2c11.4,14.1,29.4,21,47.3,18.1l131.2-20.8
			C407.1,450.8,422.1,438.7,428.6,421.8z"/>
	</g>
	<g>
		<path class="st1" d="M120.7,379.8l103.9,100.3c14.1,13.7,34.5,18.7,53.4,13.3l138.8-39.8c18.9-5.4,33.5-20.5,38.2-39.6l34.9-140.1
			c4.8-19.1-1-39.2-15.2-52.9L370.9,120.7c-14.1-13.7-34.5-18.7-53.4-13.3l-138.8,39.8c-18.9,5.4-33.5,20.5-38.2,39.6l-34.9,140.1
			C100.8,346,106.6,366.1,120.7,379.8z"/>
	</g>
	<g>
		<path class="st1" d="M293.5,89.6L149,150.9c-19.7,8.3-33.4,26.6-36,47.8L93.9,354.4c-2.6,21.2,6.3,42.2,23.4,55.1l125.4,94.5
			c17.1,12.9,39.7,15.6,59.4,7.3l144.5-61.3c19.7-8.3,33.4-26.6,36-47.8l19.1-155.8c2.6-21.2-6.3-42.2-23.4-55.1L352.9,96.8
			C335.8,84,313.2,81.2,293.5,89.6z"/>
	</g>
	<g>
		<path class="st1" d="M510.5,385.7V215.1c0-23.2-12.4-44.7-32.5-56.3L330.2,73.5c-20.1-11.6-44.9-11.6-65,0l-147.7,85.3
			C97.4,170.4,85,191.9,85,215.1v170.6c0,23.2,12.4,44.7,32.5,56.3l147.7,85.3c20.1,11.6,44.9,11.6,65,0L478,442
			C498.1,430.4,510.5,408.9,510.5,385.7z"/>
	</g>
</g>
</svg>
