<?xml version="1.0" encoding="UTF-8"?>
<svg version="1.1" xmlns="http://www.w3.org/2000/svg" width="500" height="500">
<path d="M0 0 C2.42130331 1.21065165 3.48293659 0.94602533 6.125 0.5625 C8.043125 0.2840625 8.043125 0.2840625 10 0 C10.26554687 -0.71027344 10.53109375 -1.42054688 10.8046875 -2.15234375 C11.15789062 -3.07144531 11.51109375 -3.99054688 11.875 -4.9375 C12.22304688 -5.85402344 12.57109375 -6.77054688 12.9296875 -7.71484375 C14 -10 14 -10 16 -11 C16 -10.34 16 -9.68 16 -9 C18.475 -9.495 18.475 -9.495 21 -10 C22.28249605 -6.15251186 21.87701101 -2.73348781 21.625 1.25 C20.99810202 12.43191828 20.71070026 23.6176193 20.4375 34.8125 C20.41544495 35.70835815 20.39338989 36.60421631 20.3706665 37.52722168 C20.24402407 42.68474381 20.12061315 47.84233348 20 53 C17.36 53 14.72 53 12 53 C10.95314772 49.85944316 10.66452132 47.10181754 10.3125 43.8125 C8.09812927 28.0676728 1.69449464 14.10695607 -10.59375 3.69140625 C-21.45618013 -3.94403571 -35.37646134 -4.41947195 -48.125 -2.5390625 C-56.01922575 -0.44215878 -62.54476997 4.22323127 -66.96875 11.11328125 C-71.87306508 20.08594861 -72.50920115 30.1702253 -70.30859375 40.12890625 C-65.02867704 56.01283979 -50.92609189 65.9880879 -36.88720703 73.91552734 C-33.53983332 75.83907638 -30.27278117 77.89044435 -27 79.9375 C-26.32710938 80.35451172 -25.65421875 80.77152344 -24.9609375 81.20117188 C-21.71068876 83.23100869 -18.53356882 85.30741631 -15.4375 87.56640625 C-13.17631533 89.21102091 -10.90299915 90.66533886 -8.45703125 92.01953125 C-2.5329279 95.41333961 2.68843669 99.73743391 8 104 C8.90621094 104.71285156 9.81242187 105.42570312 10.74609375 106.16015625 C21.64839216 115.25957848 29.61105677 128.00158447 31.41064453 142.25170898 C31.60538092 145.6167637 31.65774348 148.94208808 31.625 152.3125 C31.61662109 153.49513428 31.60824219 154.67776855 31.59960938 155.89624023 C31.20712508 171.10396264 26.12623293 182.33272656 14.98046875 192.91796875 C-0.21430849 205.68834739 -19.9709464 210.24043779 -39.46679688 208.8203125 C-53.95082973 207.31843321 -65.5976822 202.65713496 -78.08984375 195.2578125 C-81.32485442 193.85959312 -82.70480149 193.91980601 -86 195 C-86.19335938 195.78246094 -86.38671875 196.56492187 -86.5859375 197.37109375 C-86.84632813 198.38300781 -87.10671875 199.39492188 -87.375 200.4375 C-87.63023437 201.44683594 -87.88546875 202.45617187 -88.1484375 203.49609375 C-89 206 -89 206 -91 207 C-93.00800456 206.71887936 -95.01014051 206.38932033 -97 206 C-97.09837202 190.80835501 -96.79221441 175.62578546 -96.5 160.4375 C-96.45167784 157.8652371 -96.40349967 155.29297148 -96.35546875 152.72070312 C-96.2386378 146.48043657 -96.12003457 140.24020571 -96 134 C-95.34 133.67 -94.68 133.34 -94 133 C-93.01 133.33 -92.02 133.66 -91 134 C-90.505 133.01 -90.505 133.01 -90 132 C-87.65535673 134.34464327 -87.59775346 135.27507794 -87.10546875 138.48046875 C-86.95746826 139.38998291 -86.80946777 140.29949707 -86.65698242 141.23657227 C-86.50205322 142.21037842 -86.34712402 143.18418457 -86.1875 144.1875 C-83.31843289 160.87890269 -78.93084416 179.95874142 -65 191 C-64.14535156 191.68642578 -64.14535156 191.68642578 -63.2734375 192.38671875 C-53.10332749 199.59234988 -40.12390504 201.24975429 -28 200 C-17.26519661 197.98647972 -9.11780497 193.62402929 -2.625 184.75 C4.09926514 173.69231955 4.39672708 160.46298083 2 148 C1.34 147.67 0.68 147.34 0 147 C-0.859375 145.3984375 -0.859375 145.3984375 -1.75 143.375 C-6.35735838 134.01112416 -14.11261272 128.46289762 -22.27197266 122.30615234 C-23.78813757 121.16013903 -25.29163291 119.99740383 -26.79296875 118.83203125 C-32.68023604 114.36982109 -38.83334019 110.69585673 -45.34326172 107.23193359 C-49.70262025 104.87990254 -53.246868 102.23156495 -57 99 C-58.68680256 98.0452061 -60.3741973 97.09121013 -62.07421875 96.16015625 C-73.34585083 89.36974098 -89.23553933 75.67961125 -93.71875 62.9609375 C-94 61 -94 61 -93 58 C-93.66 57.67 -94.32 57.34 -95 57 C-95.4140625 54.93359375 -95.4140625 54.93359375 -95.625 52.4375 C-95.73714844 51.19806641 -95.73714844 51.19806641 -95.8515625 49.93359375 C-95.90054688 49.29550781 -95.94953125 48.65742188 -96 48 C-96.33 48 -96.66 48 -97 48 C-97 44.04 -97 40.08 -97 36 C-96.67 36 -96.34 36 -96 36 C-95.90525391 34.83597656 -95.90525391 34.83597656 -95.80859375 33.6484375 C-94.35476779 20.82416222 -89.47726927 10.07046521 -79.9375 1.2578125 C-71.69955229 -5.07401433 -62.45740357 -9.99608926 -52 -11 C-50.62134766 -11.17789063 -50.62134766 -11.17789063 -49.21484375 -11.359375 C-30.38084871 -13.44376971 -16.09140554 -9.07303018 0 0 Z M-92 63 C-91 65 -91 65 -91 65 Z " fill="#151514" transform="translate(285,149)"/>
<path d="M0 0 C-0.33 0.99 -0.66 1.98 -1 3 C-4.375 3.125 -4.375 3.125 -8 3 C-8.66 2.34 -9.32 1.68 -10 1 C-7.62850907 -1.37149093 -2.84018261 -1.42009131 0 0 Z " fill="#F4F4F3" transform="translate(296,150)"/>
<path d="" fill="#FFFFFF" transform="translate(0,0)"/>
</svg>
