<?xml version="1.0" encoding="UTF-8"?>
<svg version="1.1" xmlns="http://www.w3.org/2000/svg" width="1080" height="1080">
<path d="M0 0 C356.4 0 712.8 0 1080 0 C1080 356.4 1080 712.8 1080 1080 C723.6 1080 367.2 1080 0 1080 C0 723.6 0 367.2 0 0 Z " fill="#F7F6F1" transform="translate(0,0)"/>
<path d="M0 0 C2.37607847 -0.00218323 4.75168894 -0.02038908 7.12768555 -0.03930664 C33.77568773 -0.13739915 54.92986459 7.96159685 77.57885742 21.18530273 C79.52813749 22.31537587 81.47889717 23.44275247 83.43188477 24.56640625 C85.15423955 25.55823871 86.87255448 26.55707717 88.59057617 27.55639648 C94.3567924 30.69954964 99.01480717 32.1230242 105.57885742 31.18530273 C110.35910225 28.342995 112.04864113 22.29730849 113.57885742 17.18530273 C114.42857142 12.85558026 115.01947367 8.56714215 115.57885742 4.18530273 C120.52885742 4.18530273 125.47885742 4.18530273 130.57885742 4.18530273 C130.66067468 14.61972991 130.43344678 24.92656461 129.78094482 35.34106445 C128.44951863 57.10496343 128.21539657 78.88835488 127.95385742 100.68530273 C127.94361164 101.5370747 127.93336586 102.38884666 127.9228096 103.2664299 C127.79586646 113.90593785 127.6826229 124.54554494 127.57885742 135.18530273 C122.62885742 135.18530273 117.67885742 135.18530273 112.57885742 135.18530273 C112.42030273 133.76862305 112.26174805 132.35194336 112.09838867 130.89233398 C107.77016568 94.03376199 96.38360922 56.22409767 67.21557617 31.15405273 C44.51249351 14.3652185 16.19206097 9.74854589 -11.45629883 13.80249023 C-30.59732735 17.41169595 -47.76510174 28.57147725 -59.00317383 44.41577148 C-67.09183125 56.96854869 -69.68007219 69.76514007 -69.73364258 84.43530273 C-69.73757019 85.45157242 -69.73757019 85.45157242 -69.74157715 86.4883728 C-69.74592051 96.94424692 -69.06521428 106.32117762 -65.42114258 116.18530273 C-65.10918945 117.0425293 -64.79723633 117.89975586 -64.47583008 118.78295898 C-63.57038587 121.00091686 -62.55579434 123.07637402 -61.42114258 125.18530273 C-61.02540039 125.94584961 -60.6296582 126.70639648 -60.22192383 127.48999023 C-40.48290434 162.89579597 2.30260982 182.55337168 35.46459961 202.96118164 C62.36158731 219.5372322 89.21927339 236.78250496 112.57885742 258.18530273 C113.49022461 259.01288086 114.4015918 259.84045898 115.34057617 260.69311523 C136.40510613 280.73252678 151.75766513 309.31588758 152.68676758 338.5847168 C152.74882145 342.38967833 152.76445375 346.19235497 152.76635742 349.99780273 C152.77860352 351.27461914 152.79084961 352.55143555 152.8034668 353.86694336 C152.84890596 383.62959607 142.86445962 409.78409437 123.57885742 432.18530273 C109.8897438 445.75666054 93.33079028 455.10995002 75.57885742 462.18530273 C74.72549805 462.55397461 73.87213867 462.92264648 72.99291992 463.30249023 C55.42723695 470.45067037 35.70217353 471.37237433 16.98583984 471.37060547 C14.41446142 471.37278317 11.84351922 471.39096748 9.2722168 471.40991211 C-3.98288472 471.45618581 -16.86834859 470.51943642 -29.73364258 467.06030273 C-30.52432129 466.84857422 -31.315 466.6368457 -32.12963867 466.41870117 C-46.43936706 462.37890888 -59.47026292 455.25465302 -72.48754883 448.21948242 C-84.2522926 441.42680206 -84.2522926 441.42680206 -97.42114258 440.18530273 C-102.41214973 443.55760487 -104.22171618 449.67821028 -105.37036133 455.36889648 C-105.62493445 456.78536746 -105.87099234 458.20339445 -106.10864258 459.62280273 C-106.23819336 460.3543457 -106.36774414 461.08588867 -106.5012207 461.83959961 C-106.81544072 463.62017973 -107.11938325 465.40256857 -107.42114258 467.18530273 C-112.37114258 467.18530273 -117.32114258 467.18530273 -122.42114258 467.18530273 C-122.39379532 466.02712036 -122.36644806 464.86893799 -122.33827209 463.67565918 C-121.58069938 431.21455141 -121.15829507 398.75679346 -120.88891602 366.28826904 C-120.83734898 360.15106346 -120.78239208 354.01388813 -120.7277832 347.87670898 C-120.62239045 335.97959978 -120.5205251 324.08246356 -120.42114258 312.18530273 C-115.47114258 312.18530273 -110.52114258 312.18530273 -105.42114258 312.18530273 C-105.16719727 314.1047168 -104.91325195 316.02413086 -104.65161133 318.00170898 C-99.69535085 355.03558491 -92.38213901 394.19404377 -68.10083008 424.00561523 C-66.42114258 426.18530273 -66.42114258 426.18530273 -65.42114258 429.18530273 C-64.09846247 429.87286332 -62.76284209 430.53563771 -61.42114258 431.18530273 C-59.84716642 432.56598358 -58.3082992 433.98717881 -56.79614258 435.43530273 C-34.45997474 455.75861824 -5.00147949 458.41648852 23.89916992 457.40307617 C31.59874219 456.94739554 38.49157204 455.16168246 45.57885742 452.18530273 C46.27495117 451.8959082 46.97104492 451.60651367 47.68823242 451.30834961 C57.0753747 447.2742766 65.12905893 442.25609717 72.57885742 435.18530273 C73.37936523 434.42604492 74.17987305 433.66678711 75.00463867 432.88452148 C83.43955753 424.22278128 88.0075429 413.84646124 91.45385742 402.43530273 C91.65720703 401.76297607 91.86055664 401.09064941 92.07006836 400.39794922 C97.02021354 382.74429022 96.58214158 361.44474468 90.57885742 344.18530273 C90.16635742 342.99936523 89.75385742 341.81342773 89.32885742 340.59155273 C80.84320823 318.79886278 63.00122062 302.78459963 44.57885742 289.18530273 C43.38695521 288.2875233 42.19555574 287.38907606 41.00463867 286.48999023 C24.80488384 274.34776435 7.6634575 263.66315908 -9.52172852 252.98852539 C-35.16704971 237.03901863 -60.33201917 220.92138867 -82.42114258 200.18530273 C-83.05793945 199.61424805 -83.69473633 199.04319336 -84.35083008 198.45483398 C-97.44532741 186.26880657 -107.32785806 168.78573511 -113.42114258 152.18530273 C-113.66630615 151.52933105 -113.91146973 150.87335938 -114.1640625 150.19750977 C-121.70289829 129.04954613 -122.34747389 101.74858051 -116.42114258 80.18530273 C-116.06543702 78.77650834 -115.70997998 77.36765118 -115.35473633 75.95874023 C-108.93830625 51.52956192 -93.63146531 32.58386972 -72.42114258 19.18530273 C-71.3409082 18.49436523 -70.26067383 17.80342773 -69.14770508 17.09155273 C-47.7205408 4.10539256 -24.75035582 -0.00253876 0 0 Z " fill="#010101" transform="translate(529.421142578125,298.814697265625)"/>
</svg>
